<svg xmlns="http://www.w3.org/2000/svg" viewBox="0 0 800 1000">
  <defs>
    <linearGradient id="bg" x1="0" y1="0" x2="1" y2="1">
      <stop offset="0" stop-color="#050609"/>
      <stop offset=".55" stop-color="#07163d"/>
      <stop offset="1" stop-color="#54100d"/>
    </linearGradient>
    <linearGradient id="body" x1=".2" y1="0" x2=".8" y2="1">
      <stop offset="0" stop-color="#f5f2eb"/>
      <stop offset=".45" stop-color="#8ba7ff"/>
      <stop offset="1" stop-color="#1747ff"/>
    </linearGradient>
    <radialGradient id="glow">
      <stop offset="0" stop-color="#1747ff" stop-opacity=".85"/>
      <stop offset="1" stop-color="#1747ff" stop-opacity="0"/>
    </radialGradient>
    <filter id="blur"><feGaussianBlur stdDeviation="35"/></filter>
  </defs>
  <rect width="800" height="1000" fill="url(#bg)"/>
  <circle cx="180" cy="310" r="230" fill="url(#glow)" filter="url(#blur)"/>
  <path d="M0 750L800 540V1000H0Z" fill="#ef4934" opacity=".74"/>
  <circle cx="405" cy="345" r="150" fill="url(#body)"/>
  <path d="M125 1000c25-280 120-460 280-460s255 180 280 460Z" fill="url(#body)"/>
  <path d="M255 300c35-115 115-170 220-145 72 18 122 71 145 144-75-48-139-60-212-37-53 17-99 30-153 38Z" fill="#050609"/>
  <path d="M270 375c38 83 86 122 143 122 61 0 109-41 145-128-52 38-99 52-147 51-48-1-94-16-141-45Z" fill="#081331" opacity=".35"/>
  <g fill="none" stroke="#fff" stroke-opacity=".22">
    <path d="M0 140H800M0 280H800M0 420H800M0 560H800M0 700H800M0 840H800"/>
    <path d="M120 0V1000M260 0V1000M400 0V1000M540 0V1000M680 0V1000"/>
  </g>
</svg>
